<?xml version="1.0" standalone="no"?>
<!DOCTYPE svg PUBLIC "-//W3C//DTD SVG 20010904//EN"
 "http://www.w3.org/TR/2001/REC-SVG-20010904/DTD/svg10.dtd">
<svg version="1.0" xmlns="http://www.w3.org/2000/svg"
 width="800.000000pt" height="800.000000pt" viewBox="0 0 800.000000 800.000000"
 preserveAspectRatio="xMidYMid meet">
<metadata>
Created by potrace 1.14, written by Peter Selinger 2001-2017
</metadata>
<g transform="translate(0.000000,800.000000) scale(0.100000,-0.100000)"
fill="#000000" stroke="none">
<path d="M4579 7476 c-6 -6 -62 -17 -104 -21 -16 -2 -30 -4 -30 -5 0 -1 -13
-3 -30 -4 -16 -1 -36 -5 -42 -9 -7 -5 -17 -5 -23 -2 -5 3 -10 2 -10 -4 0 -6
-7 -8 -15 -5 -8 4 -15 1 -15 -6 0 -7 -7 -10 -16 -6 -9 3 -21 3 -27 -1 -7 -4
-18 -8 -25 -9 -8 -2 -21 -6 -30 -10 -9 -4 -21 -8 -27 -10 -5 -1 -23 -8 -40
-15 -16 -6 -36 -13 -43 -15 -7 -1 -31 -12 -52 -23 -22 -11 -40 -19 -40 -16 0
2 -27 -12 -61 -31 -33 -18 -67 -34 -75 -34 -8 0 -14 -3 -14 -7 0 -5 -21 -21
-48 -38 -56 -34 -126 -87 -130 -97 -2 -5 -8 -8 -13 -8 -6 0 -27 -16 -47 -36
-20 -20 -47 -43 -59 -51 -13 -8 -20 -20 -16 -26 3 -5 2 -7 -4 -4 -5 3 -26 -12
-46 -33 -20 -22 -35 -40 -33 -40 2 0 -14 -18 -35 -40 -22 -22 -39 -45 -39 -51
0 -5 -4 -7 -10 -4 -5 3 -10 -1 -10 -9 0 -9 -3 -16 -8 -16 -4 0 -12 -8 -17 -18
-15 -28 -92 -145 -105 -159 -6 -7 -8 -13 -4 -13 4 0 0 -8 -8 -17 -8 -10 -23
-38 -33 -63 -11 -25 -24 -48 -30 -52 -5 -4 -6 -8 -1 -8 5 0 4 -6 -2 -13 -6 -7
-21 -39 -33 -72 -12 -33 -27 -63 -33 -67 -8 -5 -7 -8 2 -8 10 0 9 -5 -2 -22
-8 -13 -17 -37 -19 -55 -3 -17 -8 -36 -11 -41 -3 -5 -8 -24 -11 -43 -9 -47
-13 -64 -15 -64 -1 0 -3 -18 -5 -40 -1 -22 -4 -40 -5 -40 -2 0 -3 -12 -4 -27
-1 -15 -5 -30 -8 -34 -4 -4 -3 -15 2 -25 6 -10 6 -20 1 -23 -4 -3 -9 -45 -10
-93 -1 -49 -6 -92 -12 -97 -6 -6 -9 -5 -10 5 -1 15 -6 47 -15 94 -3 17 -7 40
-8 53 0 12 -5 22 -9 22 -5 0 -5 5 -2 10 3 6 3 10 -2 10 -4 0 -9 12 -10 26 0
15 -5 29 -10 33 -4 3 -8 11 -8 16 0 23 -39 125 -47 125 -5 0 -7 4 -3 9 3 5 1
12 -5 16 -6 4 -8 11 -5 16 4 5 1 9 -4 9 -6 0 -11 9 -11 19 0 11 -4 22 -9 25
-5 3 -24 32 -41 64 -18 31 -38 60 -44 64 -6 4 -7 8 -3 8 5 0 2 6 -5 14 -7 7
-20 24 -28 36 -8 13 -23 32 -32 42 -10 10 -18 20 -18 23 0 7 -67 80 -104 114
-16 14 -49 46 -75 69 -25 24 -58 51 -74 60 -15 9 -27 20 -27 25 0 4 -4 6 -9 3
-5 -3 -11 1 -15 9 -3 8 -12 15 -21 15 -8 0 -15 4 -15 9 0 5 -20 18 -45 30 -25
12 -45 26 -45 31 0 6 -3 9 -7 8 -13 -3 -83 25 -83 34 0 4 -3 7 -7 6 -5 0 -26
7 -48 17 -22 10 -46 18 -52 18 -7 0 -13 5 -13 10 0 6 -3 8 -6 4 -3 -3 -25 2
-47 12 -23 10 -48 16 -54 14 -7 -3 -13 0 -13 5 0 6 -13 9 -30 8 -16 -1 -31 2
-32 6 -2 5 -20 10 -41 11 -20 1 -37 4 -37 8 0 3 -10 5 -22 6 -83 3 -138 9
-138 13 0 7 -107 3 -125 -4 -8 -3 -17 -1 -20 5 -4 5 -11 7 -16 4 -5 -4 -35 -9
-66 -11 -32 -3 -67 -7 -78 -8 -11 -1 -24 -4 -30 -7 -5 -3 -25 -5 -42 -5 -18 1
-33 -3 -33 -8 0 -5 -3 -7 -6 -3 -3 3 -24 -1 -46 -9 -23 -8 -43 -12 -46 -9 -3
3 -10 1 -16 -4 -6 -5 -29 -14 -51 -21 -22 -7 -46 -17 -52 -23 -7 -5 -13 -6
-13 -3 0 4 -10 1 -22 -6 -13 -7 -26 -11 -30 -10 -5 1 -8 -3 -8 -9 0 -6 -7 -9
-15 -5 -8 3 -15 2 -15 -3 0 -4 -24 -18 -52 -31 -29 -13 -62 -32 -72 -42 -18
-17 -25 -19 -42 -17 -4 0 -10 -4 -13 -9 -3 -6 -35 -31 -71 -57 -36 -26 -86
-69 -113 -95 -26 -27 -47 -46 -47 -44 0 3 -20 -17 -45 -43 -24 -26 -45 -54
-45 -61 0 -7 -4 -10 -10 -7 -5 3 -10 2 -10 -4 0 -5 -6 -16 -13 -23 -24 -25
-113 -163 -136 -210 -12 -27 -27 -50 -32 -54 -5 -3 -7 -9 -5 -13 3 -4 -2 -19
-12 -32 -9 -13 -18 -33 -19 -43 -2 -11 -8 -25 -14 -32 -6 -7 -8 -18 -4 -24 3
-5 2 -10 -3 -10 -8 0 -17 -26 -23 -68 0 -4 -5 -13 -11 -19 -6 -7 -7 -13 -4
-13 4 0 2 -9 -4 -20 -8 -15 -8 -20 2 -20 9 0 10 -3 2 -8 -16 -10 -30 -70 -39
-167 -2 -16 -4 -30 -5 -30 -7 0 -6 -223 1 -237 6 -10 6 -18 2 -18 -4 0 -8 -13
-8 -30 0 -16 2 -30 5 -30 3 0 7 -16 8 -36 2 -20 8 -46 13 -57 9 -15 8 -18 -2
-12 -8 6 -10 4 -4 -5 4 -7 9 -20 9 -29 1 -9 8 -36 16 -61 7 -25 14 -47 15 -50
1 -3 7 -23 13 -45 6 -22 11 -44 11 -49 0 -5 4 -12 11 -16 6 -4 13 -16 15 -26
2 -10 4 -20 5 -21 2 -2 3 -6 4 -10 5 -19 80 -159 88 -164 5 -3 10 -10 10 -15
1 -12 60 -98 70 -102 4 -2 8 -9 8 -15 0 -7 16 -29 35 -49 19 -20 35 -41 35
-47 0 -6 7 -11 15 -11 8 0 15 -4 15 -10 0 -12 59 -70 71 -70 5 0 9 -6 9 -14 0
-8 10 -18 22 -22 l22 -7 -21 -16 c-44 -34 -72 -53 -77 -52 -3 1 -15 -7 -25
-16 -73 -67 -92 -83 -101 -83 -5 0 -9 -3 -8 -7 2 -5 -17 -28 -41 -53 -24 -25
-55 -63 -69 -85 -14 -22 -28 -42 -31 -45 -20 -16 -102 -205 -93 -214 3 -3 0
-6 -7 -6 -7 0 -10 -4 -6 -9 3 -5 1 -12 -4 -15 -5 -3 -7 -19 -6 -36 1 -16 -1
-27 -6 -24 -5 3 -9 -5 -10 -18 -1 -13 -3 -36 -6 -53 -10 -61 -11 -2200 -1
-2212 7 -9 7 -13 0 -13 -6 0 -7 -13 -2 -38 5 -20 14 -64 21 -97 16 -73 13 -64
29 -100 7 -16 13 -33 12 -37 -1 -5 2 -8 8 -8 5 0 7 -7 4 -15 -4 -8 -1 -15 7
-15 7 0 10 -3 6 -6 -3 -3 5 -24 19 -45 13 -21 24 -50 24 -65 0 -19 4 -25 14
-21 9 4 17 -2 21 -14 4 -10 11 -19 16 -19 5 0 9 -5 9 -11 0 -7 16 -27 35 -45
18 -19 31 -34 28 -34 -4 0 9 -13 27 -30 18 -16 37 -30 42 -30 4 0 8 -6 8 -14
0 -8 9 -18 20 -21 11 -3 20 -11 20 -17 0 -6 3 -8 6 -5 4 4 14 -1 23 -11 30
-33 198 -124 213 -115 5 2 8 0 8 -6 0 -5 15 -13 32 -16 18 -4 38 -10 43 -14 6
-4 24 -8 40 -10 17 -2 35 -6 40 -10 6 -4 26 -8 45 -10 19 -2 41 -8 48 -13 8
-7 17 -6 29 3 11 9 14 9 10 2 -6 -10 438 -12 2052 -13 1628 0 2060 3 2064 13
4 9 6 8 6 -2 1 -10 4 -11 15 -2 10 8 16 9 21 1 3 -5 12 -10 18 -10 7 0 6 4 -3
10 -16 10 -13 11 42 14 20 0 40 4 44 9 4 4 20 7 35 7 15 0 31 5 34 10 4 6 10
8 15 5 5 -3 11 -1 15 5 4 6 10 8 15 5 5 -3 11 -1 15 5 4 6 11 8 16 5 5 -4 9
-1 9 5 0 7 6 10 13 7 6 -2 25 5 40 15 15 11 35 21 43 22 9 1 20 9 25 17 5 8 9
11 9 6 0 -10 110 64 110 74 0 4 16 11 35 15 19 3 32 10 29 15 -7 11 21 51 29
42 4 -3 7 -2 7 3 0 5 20 32 45 59 25 28 45 53 45 57 0 4 8 14 18 24 9 10 17
20 17 23 0 3 8 17 17 31 9 14 29 52 45 85 15 33 31 62 36 63 4 2 5 8 2 12 -3
5 1 26 10 46 8 20 12 40 9 45 -3 5 0 9 6 9 6 0 9 4 6 8 -3 5 1 28 8 53 6 24
12 56 11 71 0 16 4 28 10 28 6 0 6 3 -1 8 -16 10 3 75 19 65 7 -4 15 -8 19 -8
4 0 17 -8 28 -18 11 -9 25 -17 30 -17 6 0 10 -4 10 -8 0 -5 12 -15 28 -23 15
-8 32 -18 39 -24 7 -5 19 -15 27 -22 7 -6 16 -10 18 -7 3 2 13 -5 23 -16 10
-11 22 -20 27 -20 5 0 18 -9 30 -20 12 -11 28 -20 35 -20 7 0 13 -4 13 -10 0
-5 6 -10 13 -10 8 0 22 -9 32 -20 10 -11 20 -18 23 -15 3 2 12 -3 21 -13 9 -9
33 -26 54 -37 20 -11 37 -24 37 -29 0 -5 3 -7 6 -4 3 3 17 -5 31 -18 14 -13
32 -24 39 -24 8 0 14 -4 14 -10 0 -5 7 -10 15 -10 8 0 15 -4 15 -9 0 -5 12
-15 28 -22 28 -15 113 -69 122 -79 3 -3 30 -21 60 -40 30 -19 57 -38 58 -42 2
-5 10 -8 18 -8 8 0 14 -4 14 -10 0 -5 7 -10 15 -10 8 0 15 -4 15 -10 0 -5 7
-10 15 -10 8 0 15 -3 15 -8 0 -4 17 -16 38 -27 20 -11 41 -25 45 -32 4 -7 15
-13 22 -13 8 0 15 -4 15 -10 0 -5 7 -10 15 -10 8 0 15 -4 15 -10 0 -5 7 -10
15 -10 8 0 15 -3 15 -7 0 -5 23 -21 50 -38 28 -16 50 -33 50 -38 0 -4 5 -5 10
-2 6 3 10 1 10 -4 0 -6 6 -11 13 -11 6 -1 28 -14 47 -30 19 -17 40 -30 47 -30
7 0 13 -4 13 -10 0 -5 7 -10 15 -10 8 0 15 -4 15 -10 0 -5 7 -10 16 -10 8 0
12 -4 9 -10 -9 -15 48 -12 64 2 11 10 13 10 7 1 -4 -7 -3 -13 3 -13 5 0 11 4
13 9 2 6 14 12 28 14 47 9 110 30 110 37 0 4 8 10 18 12 31 8 37 12 64 40 15
15 31 28 35 28 5 0 16 9 26 20 9 11 15 20 12 20 -3 0 3 8 13 18 38 41 58 72
67 105 2 4 3 8 5 10 1 1 3 9 5 17 2 8 10 36 18 61 12 40 14 274 15 1593 0 850
-3 1546 -7 1546 -3 0 -7 15 -8 33 -2 54 -7 77 -15 77 -4 0 -8 6 -8 14 0 18
-40 95 -60 116 -8 9 -27 31 -42 50 -16 19 -28 30 -28 26 0 -5 -14 6 -30 24
-17 18 -33 30 -37 26 -4 -3 -16 3 -28 14 -12 12 -35 23 -51 26 -16 3 -34 10
-41 15 -7 6 -17 8 -22 5 -5 -4 -12 -2 -15 3 -3 5 -15 7 -26 4 -11 -3 -20 0
-20 6 0 9 -5 9 -20 1 -11 -6 -20 -7 -20 -2 0 5 -7 9 -15 9 -8 0 -15 -7 -15
-14 0 -8 -4 -11 -10 -8 -5 3 -10 1 -10 -5 0 -6 -4 -8 -10 -5 -5 3 -10 1 -10
-5 0 -6 -8 -14 -18 -18 -25 -10 -136 -85 -140 -94 -2 -5 -8 -8 -14 -8 -10 0
-78 -48 -89 -63 -3 -5 -10 -9 -15 -9 -9 -1 -78 -43 -98 -60 -6 -5 -45 -31 -86
-58 -41 -27 -82 -54 -90 -60 -17 -12 -91 -61 -125 -82 -11 -7 -33 -23 -48 -35
-16 -13 -34 -23 -42 -23 -7 0 -16 -7 -19 -16 -3 -8 -10 -13 -15 -10 -5 4 -11
3 -13 -1 -6 -15 -76 -62 -82 -56 -3 4 -6 2 -6 -4 0 -6 -13 -16 -30 -23 -16 -7
-30 -19 -30 -27 0 -8 -4 -12 -9 -9 -4 3 -21 -6 -37 -19 -16 -14 -33 -25 -37
-25 -10 0 -71 -42 -75 -52 -2 -5 -10 -8 -17 -8 -8 0 -18 -8 -24 -17 -5 -10
-12 -17 -16 -15 -8 4 -105 -60 -105 -70 0 -4 -4 -7 -8 -5 -9 2 -53 -27 -84
-55 -10 -10 -18 -13 -18 -7 0 6 -7 3 -16 -5 -21 -22 -32 -12 -30 24 1 16 -3
30 -8 30 -6 0 -4 5 4 10 8 5 10 10 5 10 -10 0 -16 34 -18 98 -1 12 -5 22 -9
22 -4 0 -8 11 -8 24 0 14 -5 28 -10 31 -6 4 -8 11 -5 16 4 5 3 15 -2 22 -4 6
-8 14 -8 17 -1 6 -25 60 -57 133 -12 26 -25 47 -30 47 -4 0 -8 5 -8 11 0 6 -6
17 -12 24 -30 33 -38 45 -33 45 6 0 -39 50 -114 127 l-33 35 23 16 c13 9 26
19 29 22 3 4 32 24 65 46 33 21 72 51 87 66 14 15 29 24 32 21 3 -4 6 1 6 10
0 9 4 16 9 15 10 -3 162 150 202 203 13 17 34 42 47 55 12 13 23 27 23 31 1
14 33 63 41 63 4 0 8 5 8 11 0 6 9 24 20 40 27 37 90 161 90 177 0 6 4 12 9
12 5 0 12 11 15 25 3 13 11 37 18 52 6 15 12 31 13 36 2 4 4 9 5 12 1 3 4 10
5 15 1 6 3 11 5 13 6 8 60 222 62 250 1 16 6 31 10 33 4 3 5 22 3 44 -2 22 -1
40 3 40 5 0 7 18 6 40 -1 22 2 42 5 44 8 5 5 82 -4 96 -3 6 -1 10 5 10 6 0 8
5 4 12 -5 7 -9 42 -10 78 -2 36 -5 83 -9 105 -3 22 -8 63 -11 90 -3 28 -10 54
-15 60 -5 5 -9 23 -9 40 0 18 -3 35 -7 39 -4 3 -9 17 -11 29 -6 37 -17 70 -33
99 -5 10 -9 27 -9 38 0 11 -5 20 -10 20 -6 0 -9 3 -9 8 4 24 -2 52 -11 47 -5
-3 -10 1 -10 9 0 9 -9 31 -20 51 -11 19 -16 35 -12 35 4 0 -2 7 -13 16 -11 8
-19 16 -18 17 6 5 -11 47 -19 47 -5 0 -6 5 -3 10 3 6 1 10 -4 10 -6 0 -11 7
-11 15 0 8 -5 15 -11 15 -5 0 -7 5 -4 10 3 6 2 10 -3 10 -4 0 -16 16 -25 35
-9 19 -21 35 -26 35 -6 0 -8 9 -6 20 2 12 -2 20 -9 20 -8 0 -21 11 -30 25 -9
13 -33 43 -54 65 -93 103 -142 154 -142 148 0 -4 -17 10 -37 31 -21 21 -54 48
-73 61 -35 24 -49 35 -73 55 -11 10 -30 22 -112 72 -11 7 -32 18 -47 25 -16 7
-28 16 -28 20 0 4 -11 8 -25 8 -14 0 -25 5 -25 10 0 6 -7 10 -15 10 -8 0 -15
5 -15 11 0 5 -4 8 -8 5 -5 -3 -25 4 -45 14 -21 11 -38 20 -39 19 -4 -1 -34 10
-83 28 -43 16 -69 23 -97 27 -10 1 -21 5 -24 9 -4 4 -19 7 -34 7 -15 0 -30 3
-34 7 -8 8 -25 11 -82 16 -22 2 -46 7 -52 11 -7 4 -16 5 -21 2 -5 -4 -12 0
-14 6 -4 10 -6 10 -6 0 -1 -8 -6 -10 -13 -5 -21 12 -281 12 -297 -1 -11 -8
-13 -8 -7 2 4 6 2 12 -3 12 -6 0 -11 -6 -11 -12 0 -10 -2 -10 -8 0 -5 7 -10
10 -13 8z m320 -504 c9 -9 17 -10 23 -4 6 6 22 7 39 2 16 -5 29 -6 29 -3 0 3
7 0 15 -7 8 -7 15 -10 15 -6 0 3 16 0 35 -8 21 -9 37 -11 40 -5 4 5 13 3 21
-6 9 -8 20 -13 25 -10 5 4 9 2 9 -3 0 -5 15 -13 33 -17 41 -10 34 -7 92 -35
28 -13 62 -32 78 -42 15 -11 27 -16 27 -11 0 4 5 0 11 -10 6 -9 14 -15 20 -12
5 4 12 -1 15 -9 3 -9 10 -14 14 -11 4 2 16 -6 25 -19 10 -13 24 -22 30 -19 7
2 15 -3 18 -11 4 -9 13 -16 22 -16 8 0 14 -3 13 -7 -2 -5 19 -28 47 -53 27
-25 55 -50 62 -56 7 -7 9 -14 6 -18 -4 -3 2 -6 12 -6 10 0 15 -3 12 -6 -4 -4
3 -15 15 -25 11 -11 17 -19 12 -19 -5 0 2 -7 14 -16 12 -8 22 -20 22 -26 0 -6
10 -19 22 -29 11 -11 18 -19 15 -19 -4 0 8 -24 26 -52 18 -29 39 -68 46 -85 8
-18 17 -33 22 -33 5 0 6 -7 3 -15 -4 -8 -1 -15 5 -15 6 0 10 -3 9 -7 -1 -8 4
-22 22 -68 13 -33 33 -108 37 -140 2 -16 8 -32 14 -34 8 -2 8 -5 0 -10 -7 -5
-6 -15 4 -34 8 -15 10 -29 4 -32 -5 -4 -5 -13 -1 -23 7 -14 9 -287 3 -287 -2
0 -5 -18 -7 -40 -8 -62 -9 -69 -17 -82 -5 -7 -6 -17 -2 -22 3 -5 1 -12 -4 -16
-5 -3 -8 -14 -6 -25 2 -11 1 -20 -3 -20 -4 0 -16 -29 -27 -65 -10 -36 -23 -65
-27 -65 -4 0 -7 -3 -6 -7 4 -11 -53 -126 -66 -135 -6 -4 -7 -8 -2 -8 5 0 1 -9
-9 -20 -10 -11 -15 -20 -12 -20 4 0 -1 -8 -10 -18 -10 -11 -27 -32 -38 -48
-11 -15 -28 -36 -37 -46 -10 -10 -16 -18 -13 -18 10 0 -154 -157 -169 -163 -9
-4 -16 -11 -16 -17 0 -5 -7 -10 -15 -10 -8 0 -15 -5 -15 -12 0 -6 -3 -8 -7 -5
-3 4 -13 -2 -20 -13 -8 -11 -19 -18 -24 -15 -5 4 -9 1 -9 -4 0 -6 -7 -11 -15
-11 -8 0 -15 -5 -15 -11 0 -5 -4 -8 -9 -5 -5 3 -12 -1 -15 -10 -4 -9 -9 -14
-13 -11 -3 4 -18 -2 -32 -12 -14 -10 -32 -16 -40 -13 -8 2 -11 0 -7 -6 5 -9
-30 -24 -45 -19 -4 1 -16 -6 -27 -16 -12 -11 -25 -16 -31 -13 -5 4 -12 2 -16
-4 -4 -6 -10 -8 -15 -5 -5 3 -14 -1 -22 -8 -7 -7 -23 -12 -35 -11 -13 1 -23
-2 -23 -6 0 -5 -11 -7 -25 -5 -14 1 -25 -1 -25 -5 0 -4 -12 -7 -27 -8 -16 0
-30 -1 -33 -2 -18 -6 -54 -11 -114 -15 -37 -3 -72 -8 -77 -11 -5 -3 -9 -2 -9
3 0 4 -37 8 -83 8 -45 0 -86 3 -92 6 -5 4 -21 6 -35 5 -14 -1 -30 1 -36 6 -6
4 -25 8 -42 10 -18 1 -32 6 -32 11 0 5 -9 7 -20 4 -11 -3 -23 -1 -26 4 -3 5
-10 7 -15 4 -5 -4 -9 -1 -9 5 0 6 -4 9 -8 6 -5 -3 -23 4 -41 15 -18 11 -30 15
-26 9 3 -5 1 -10 -4 -10 -6 0 -11 5 -11 11 0 5 -4 8 -9 4 -5 -3 -16 1 -24 9
-8 8 -17 12 -21 9 -3 -4 -6 -2 -6 4 0 5 -18 16 -40 23 -22 7 -40 17 -40 22 0
4 -7 8 -15 8 -8 0 -15 4 -15 10 0 5 -11 12 -25 16 -14 3 -25 11 -25 17 0 6 -3
8 -6 4 -4 -3 -15 4 -25 16 -10 12 -18 18 -19 12 0 -5 -7 1 -16 13 -8 12 -20
20 -25 17 -5 -4 -9 2 -9 11 0 10 -3 15 -6 11 -8 -7 -140 124 -174 173 -13 19
-32 44 -42 54 -10 11 -24 32 -30 48 -7 15 -16 28 -20 28 -5 0 -8 7 -8 15 0 8
-4 15 -9 15 -8 0 -24 37 -22 53 1 4 -4 7 -10 7 -6 0 -9 7 -5 15 3 8 2 15 -3
15 -8 0 -50 94 -55 121 -1 8 -5 19 -9 26 -4 6 -8 23 -9 37 -1 14 -5 26 -9 26
-3 0 -6 13 -7 30 0 16 -4 35 -8 42 -8 13 -9 19 -19 138 -7 89 -7 73 -1 189 3
56 10 97 17 101 8 5 8 10 0 14 -7 5 -7 15 -1 31 5 14 7 25 4 25 -4 0 -1 6 5
13 6 8 8 17 5 20 -3 3 -2 12 2 19 5 7 10 22 11 33 2 11 6 27 10 35 3 8 7 20 9
25 1 6 9 27 18 48 9 20 13 37 9 37 -5 0 -3 4 2 8 6 4 23 32 37 64 15 31 32 59
38 63 5 3 8 10 5 15 -3 4 2 13 10 20 8 7 15 18 15 26 0 7 10 20 22 28 12 9 19
16 15 16 -4 0 1 10 12 22 11 11 18 26 14 31 -4 6 -1 7 6 3 8 -5 14 0 18 13 3
11 14 23 25 27 11 3 17 8 14 11 -6 6 57 68 67 65 4 -1 7 5 7 13 0 8 4 15 9 15
5 0 19 11 32 25 13 13 27 25 32 25 4 0 16 8 26 18 32 28 44 37 81 58 19 10 37
22 40 25 3 3 20 11 38 18 17 8 32 18 32 24 0 6 3 7 6 4 4 -3 16 -1 28 5 11 7
23 13 26 13 3 1 22 9 44 18 21 9 42 14 47 11 5 -3 9 0 9 5 0 6 8 11 18 11 10
0 24 6 31 13 11 10 12 9 6 -3 -7 -12 -6 -13 6 -3 15 12 48 21 114 30 22 3 56
8 75 12 63 13 283 7 299 -7z m-3260 -496 c10 -7 12 -6 6 4 -6 9 -4 11 6 4 8
-4 29 -9 48 -11 18 -1 40 -8 47 -14 11 -9 14 -8 14 2 0 12 2 12 9 0 5 -7 20
-13 35 -13 14 0 26 -5 26 -10 0 -5 5 -6 10 -3 6 3 10 2 10 -3 0 -5 6 -9 13
-10 27 -2 46 -8 59 -20 8 -6 18 -9 21 -5 4 3 7 1 7 -6 0 -8 7 -11 15 -7 8 3
15 1 15 -4 0 -6 6 -10 14 -10 8 0 17 -7 20 -16 3 -8 10 -12 16 -9 6 3 16 0 24
-7 7 -7 23 -20 36 -28 55 -38 200 -172 200 -186 0 -3 6 -11 13 -19 31 -33 47
-56 47 -70 0 -7 5 -17 12 -21 7 -5 8 -2 3 7 -5 8 -5 11 -1 7 4 -3 7 -9 7 -12
0 -3 15 -35 34 -71 19 -36 33 -65 30 -65 -3 0 2 -11 11 -25 9 -14 13 -25 8
-25 -4 0 -3 -5 4 -12 7 -7 12 -25 12 -40 0 -15 5 -28 12 -28 6 0 9 -3 5 -6 -3
-3 0 -26 8 -50 8 -27 9 -42 2 -37 -6 4 -7 1 -3 -6 18 -28 24 -189 11 -277 -4
-27 -8 -59 -9 -72 -1 -13 -8 -27 -16 -32 -9 -6 -10 -10 -4 -10 9 0 9 -10 0
-39 -6 -22 -15 -43 -19 -47 -4 -4 -7 -14 -7 -22 0 -18 -31 -85 -43 -93 -5 -3
-8 -10 -8 -15 2 -13 -32 -74 -41 -74 -5 0 -8 -6 -8 -13 0 -8 -9 -24 -20 -37
-11 -12 -17 -27 -13 -33 3 -5 1 -7 -4 -4 -6 4 -18 -4 -26 -16 -26 -40 -167
-175 -167 -160 0 4 -7 -2 -15 -13 -8 -10 -15 -15 -15 -11 0 4 -10 -2 -22 -13
-27 -25 -198 -113 -206 -105 -3 2 -11 0 -18 -6 -12 -10 -54 -21 -86 -23 -10 0
-18 -3 -18 -6 0 -4 -6 -7 -12 -7 -7 -1 -29 -4 -48 -8 -67 -13 -350 -9 -350 5
0 3 -10 7 -22 8 -13 1 -30 4 -38 6 -8 2 -30 7 -47 11 -18 4 -33 12 -33 17 0 5
-3 7 -8 4 -4 -2 -25 4 -47 14 -22 11 -45 19 -52 20 -6 0 -18 6 -25 13 -8 6
-24 18 -36 25 -12 6 -32 18 -44 25 -12 6 -28 17 -34 22 -36 31 -55 45 -59 45
-10 0 -133 131 -164 176 -19 27 -40 52 -45 56 -7 5 -7 8 -1 8 6 0 1 7 -10 16
-11 8 -19 17 -17 20 5 8 -22 64 -31 64 -5 0 -5 5 -2 10 3 6 1 10 -6 10 -7 0
-10 3 -6 6 3 4 0 19 -8 34 -8 15 -11 30 -8 34 4 3 1 6 -6 6 -7 0 -11 6 -8 13
2 6 0 23 -6 37 -13 31 -16 46 -22 90 -2 19 -4 35 -5 35 -11 0 -19 188 -9 233
5 21 3 32 -5 32 -8 0 -8 2 0 8 6 4 11 14 12 22 0 8 3 27 6 43 3 15 8 37 10 50
2 12 9 33 14 47 5 14 11 30 12 35 1 6 4 16 6 23 2 6 6 18 8 25 2 6 4 16 4 21
0 5 4 12 9 15 4 3 24 36 43 74 19 37 38 67 43 67 4 0 6 4 3 8 -3 4 10 25 29
45 19 20 31 37 28 37 -17 0 158 157 210 188 15 9 27 20 27 25 0 4 5 5 10 2 6
-3 10 -1 10 5 0 6 4 9 9 5 6 -3 19 5 30 17 12 12 21 16 21 9 0 -7 9 -3 22 9
20 18 39 25 61 21 4 0 7 4 7 10 0 6 6 9 14 6 8 -3 16 -2 18 4 3 9 14 12 83 25
16 3 32 8 35 12 3 4 19 7 35 7 17 -1 38 2 48 5 29 9 230 6 246 -4z m1395
-1011 c3 -27 5 -50 6 -50 3 0 11 -39 14 -66 1 -14 6 -31 10 -37 7 -11 11 -26
22 -82 3 -14 9 -27 15 -28 5 -2 7 -8 3 -13 -3 -5 -2 -15 3 -21 4 -7 8 -15 9
-18 7 -35 75 -182 89 -192 6 -4 6 -8 1 -8 -5 0 -3 -7 4 -15 7 -8 9 -15 4 -15
-5 0 -1 -5 9 -11 9 -5 17 -17 17 -24 0 -8 5 -15 12 -15 6 0 9 -3 5 -6 -3 -4 7
-26 23 -50 17 -23 30 -46 30 -51 0 -4 9 -14 20 -21 11 -7 20 -19 20 -27 0 -8
5 -15 10 -15 6 0 18 -16 27 -35 9 -19 23 -35 30 -35 7 0 13 -4 13 -8 0 -5 17
-26 38 -48 74 -77 113 -70 -388 -70 -313 0 -450 3 -450 10 1 6 19 29 40 51 22
22 43 48 46 58 3 9 10 17 15 17 5 0 9 7 9 15 0 9 7 18 15 21 8 4 12 10 9 15
-3 5 0 9 5 9 6 0 11 5 11 11 0 6 7 17 15 26 8 8 13 19 10 24 -4 5 -2 9 4 9 6
0 13 11 17 25 3 14 9 25 13 25 4 0 13 16 20 36 7 20 23 57 34 83 12 25 20 52
19 59 -2 6 1 12 6 12 8 0 28 57 37 105 1 6 3 12 4 15 5 11 12 47 15 77 2 17 6
35 9 40 3 5 7 30 8 56 2 26 5 47 8 47 3 0 6 37 5 83 0 45 2 86 4 90 9 18 21
-10 26 -58z"/>
</g>
</svg>
